Coordinates
version=1
nRows=15
nColumns=19
inDegrees=yes

Units are S.I. units (second, meters, Newtons, ...)
If the header above contains a line with 'inDegrees', this indicates whether rotational values are in degrees (yes) or radians (no).

endheader
time	pelvis_tilt	pelvis_list	pelvis_rotation	pelvis_tx	pelvis_ty	pelvis_tz	hip_flexion_r	hip_adduction_r	hip_rotation_r	knee_angle_r	knee_angle_r_beta	ankle_angle_r	hip_flexion_l	hip_adduction_l	hip_rotation_l	knee_angle_l	knee_angle_l_beta	ankle_angle_l
     16.81333333	     -2.65870327	      7.01325807	      1.79960686	      2.27885964	      0.95459955	      1.01560373	     -8.41062428	    -11.09626247	    -12.78605605	     74.04686518	      1.29236160	     -7.44292966	     21.02304571	     10.68923153	     -1.79548341	     19.66549221	      0.34322759	      5.92687343
     16.82000000	     -2.71023556	      7.26473102	      2.41007523	      2.27725909	      0.94866235	      1.01452149	     -7.12825466	    -11.24902168	    -12.30616533	     77.91933445	      1.35994894	     -6.74469606	     21.90869172	     11.02713419	     -2.27831036	     23.09488597	      0.40308180	      6.41488004
     16.82666667	     -2.12539677	      7.62456955	      2.98586627	      2.27561787	      0.94327320	      1.01367612	     -6.57038995	    -11.44371697	    -11.89819331	     81.57034263	      1.42367105	     -6.02311064	     22.03301007	     11.45672794	     -2.61142028	     26.46014972	      0.46181673	      7.20260196
     16.83333333	     -1.86978379	      7.89859370	      3.54382762	      2.27378897	      0.93750132	      1.01299914	     -5.54047245	    -11.51638067	    -11.36899815	     85.17887360	      1.48665180	     -5.40491627	     22.50439923	     11.80390535	     -2.79416622	     29.84979563	      0.52097721	      8.33735128
     16.84000000	     -1.48576427	      8.19264971	      4.03053185	      2.27183132	      0.93198439	      1.01255008	     -4.57987542	    -11.58344527	    -10.79116002	     88.65258528	      1.54727950	     -4.74352393	     22.73479819	     12.15935629	     -2.85776942	     33.06567477	      0.57710489	      9.69953716
     16.84666667	     -0.59681319	      8.65220523	      4.43843431	      2.26992762	      0.92732578	      1.01231840	     -4.19216420	    -11.82008641	    -10.30142247	     91.86733463	      1.60338746	     -4.13386473	     22.19138282	     12.67184074	     -2.75989862	     35.88018323	      0.62622733	     11.28001474
     16.85333333	     -0.50837048	      8.59481407	      4.71690064	      2.26762838	      0.92219808	      1.01239908	     -2.59344539	    -11.42453103	     -9.37595453	     95.06645947	      1.65922273	     -3.59065132	     22.54833988	     12.61467123	     -2.67761470	     38.72091345	      0.67580743	     13.04558731
     16.86000000	     -0.12212523	      8.79449878	      4.89755962	      2.26541399	      0.91785336	      1.01261180	     -1.31847283	    -11.36253667	     -8.51454174	     98.04938516	      1.71128460	     -3.05790081	     22.29771522	     12.81202811	     -2.53186724	     41.02891658	      0.71608968	     14.82566024
     16.86666667	      0.21046522	      8.97390180	      4.95538746	      2.26320868	      0.91403976	      1.01302735	      0.13108903	    -11.28171654	     -7.53450854	    100.83531303	      1.75990821	     -2.59053848	     21.89548773	     12.96116494	     -2.37809304	     42.93258684	      0.74931500	     16.58902221
     16.87333333	      0.78639923	      9.19323155	      4.92239991	      2.26102851	      0.91112707	      1.01354871	      1.35931675	    -11.28126799	     -6.58907337	    103.34372058	      1.80368819	     -2.17090676	     20.98987375	     13.12579460	     -2.18315765	     44.38628139	      0.77468675	     18.28449166
     16.88000000	      1.07298551	      9.31758617	      4.64934386	      2.25888491	      0.90856641	      1.01435612	      3.10802863	    -11.14066521	     -5.30418671	    105.68262454	      1.84450976	     -1.83377464	     20.22862447	     13.10005817	     -2.22579459	     45.48661605	      0.79389122	     19.81622310
     16.88666667	      1.05006310	      9.38084918	      4.25850903	      2.25677241	      0.90626475	      1.01525414	      5.33023039	    -10.95615286	     -3.88869699	    107.82402123	      1.88188418	     -1.61566158	     19.64083610	     12.98616322	     -2.41108580	     46.26373060	      0.80745442	     21.13593610
     16.89333333	      1.18379665	      9.45639779	      3.83414140	      2.25485686	      0.90479829	      1.01613802	      7.36957380	    -10.75513244	     -2.51599029	    109.62327845	      1.91328715	     -1.35149687	     18.65734974	     12.89236439	     -2.54536065	     46.63446723	      0.81392500	     22.28424729
     16.90000000	      1.26896757	      9.49903706	      3.35642337	      2.25312835	      0.90388843	      1.01702155	      9.48340770	    -10.53051217	     -1.16096611	    111.11892618	      1.93939112	     -1.12033154	     17.55905662	     12.76407847	     -2.72829187	     46.70565119	      0.81516739	     23.24317147
     16.90666667	      1.20389029	      9.47890235	      2.82911362	      2.25154707	      0.90341950	      1.01785378	     11.78627887	    -10.22260420	      0.20133258	    112.31633957	      1.96028993	     -0.91496658	     16.48798120	     12.57870402	     -2.97124160	     46.52069025	      0.81193922	     23.93394259
